<?xml version="1.0" encoding="utf-8"?><svg viewBox="0 0 512 512" xmlns="http://www.w3.org/2000/svg" xmlns:xlink="http://www.w3.org/1999/xlink"><style>:root>svg{display:none}:root>svg:target{display:block}</style><svg viewBox="0 0 23 25" id="30-day-Icon" xmlns="http://www.w3.org/2000/svg"><path d="M23 2.44l-1.451-.11-.121 1.69A12.253 12.253 0 0012.358 0a12.5 12.5 0 000 25 12.3 12.3 0 0010.265-5.55l-1.207-.82a10.863 10.863 0 01-9.058 4.9 11.031 11.031 0 010-22.06 10.806 10.806 0 018.057 3.61l-1.851-.14-.106 1.47 4.234.31zM4.067 12.78a2.429 2.429 0 00.947.24c.356 0 .608-.11.608-.37a.539.539 0 00-.624-.41h-.46v-.73h.443a.477.477 0 00.554-.31c0-.17-.176-.29-.51-.29a2.022 2.022 0 00-.86.23l-.219-.74a2.666 2.666 0 011.309-.3 1.116 1.116 0 011.332.93.866.866 0 01-.7.84v.01a.87.87 0 01.816.84c0 .7-.657 1.11-1.611 1.11a2.514 2.514 0 01-1.243-.28zm4.617 1.05a1.538 1.538 0 11.006 0h-.006zm.011-.75c.28 0 .466-.35.466-1.11s-.186-1.11-.471-1.11-.471.34-.471 1.11.186 1.11.471 1.11zm3.183-3a9.807 9.807 0 011.3-.08 2.885 2.885 0 011.66.38 1.569 1.569 0 01.734 1.41 1.788 1.788 0 01-.679 1.52 3.173 3.173 0 01-1.917.5 7.786 7.786 0 01-1.1-.06v-3.67zM12.913 13a1.826 1.826 0 00.241.01 1.124 1.124 0 001.31-1.16 1.03 1.03 0 00-1.189-1.06 1.909 1.909 0 00-.362.03V13zm5.725.09a3.849 3.849 0 00.044.68h-.932l-.055-.23h-.021a1.012 1.012 0 01-.789.29.875.875 0 01-.943-.85c0-.74.647-1.07 1.666-1.07v-.02c0-.1-.066-.22-.471-.22a1.861 1.861 0 00-.817.21l-.18-.65a2.564 2.564 0 011.177-.26 1.134 1.134 0 011.321 1.21v.91zm-1-.55c-.455 0-.674.11-.674.34a.247.247 0 00.3.24.4.4 0 00.367-.28.689.689 0 00.011-.15v-.15zm2.443-1.5l.356 1.18c.044.16.1.38.137.51h.026c.038-.14.082-.36.115-.51l.268-1.18h1.129l-.57 1.56a4.369 4.369 0 01-1.09 2.02 1.683 1.683 0 01-.97.38l-.192-.88a1.2 1.2 0 00.335-.07.955.955 0 00.35-.25.223.223 0 00.055-.13.406.406 0 00-.044-.16l-1.057-2.47h1.156z" fill-rule="evenodd"/></svg><svg viewBox="0 0 40 25" id="avto-icon" xmlns="http://www.w3.org/2000/svg"><path d="M37.2 10.6l-1.036-4.1a.614.614 0 00.5-.6v-.66a2.621 2.621 0 00-2.631-2.6H29.31V1.28A1.286 1.286 0 0028.01 0H3.964a1.286 1.286 0 00-1.3 1.28V12.5a.627.627 0 001.253 0V1.28a.037.037 0 01.042-.04H28.01a.037.037 0 01.042.04V12.5a.627.627 0 001.253 0v-.7H36.7a2.047 2.047 0 011.946 1.4H36.7a.624.624 0 00-.626.62v1.32a1.953 1.953 0 001.962 1.94h.71v2.72h-1.637a3.982 3.982 0 00-7.5 0h-.3v-4.66a.627.627 0 00-1.253 0v4.66h-13a3.981 3.981 0 00-7.5 0h-3.6a.043.043 0 01-.042-.04V18.4h2.714a.62.62 0 100-1.24H.615a.62.62 0 100 1.24h2.046v1.36a1.286 1.286 0 001.3 1.28h3.383v.04a3.967 3.967 0 007.934 0v-.04h14.116v.04a3.967 3.967 0 007.934 0v-.04h2.048a.624.624 0 00.626-.62v-6.6A3.276 3.276 0 0037.2 10.6zm-7.889-4.08h5.565l1.023 4.04H29.31V6.52zm4.718-2.64a1.37 1.37 0 011.378 1.36v.04h-6.1v-1.4h4.718zM11.314 23.76a2.68 2.68 0 112.714-2.68 2.7 2.7 0 01-2.715 2.68zm22.047 0a2.68 2.68 0 112.714-2.68 2.7 2.7 0 01-2.715 2.68zm4.676-7.92a.7.7 0 01-.709-.7v-.7h1.419v1.4h-.71zM11.314 19.8a1.28 1.28 0 101.294 1.28 1.293 1.293 0 00-1.295-1.28zm22.047 0a1.28 1.28 0 101.294 1.28 1.293 1.293 0 00-1.295-1.28zm-17.329-2.02a.625.625 0 00.626.62h9.354a.62.62 0 100-1.24h-9.354a.625.625 0 00-.627.62zM1.96 15.76h8.018a.62.62 0 100-1.24H1.96a.62.62 0 10-.001 1.24zm18.932-9.64l-5.57 5.5-2.9-2.86a.635.635 0 00-.886 0 .619.619 0 000 .88l3.34 3.3a.635.635 0 00.886 0L21.775 7a.619.619 0 000-.88.635.635 0 00-.884 0z" fill-rule="evenodd"/></svg><svg viewBox="0 0 22 20" id="cart" xmlns="http://www.w3.org/2000/svg"><path d="M17.44 20a2.724 2.724 0 112.74-2.724A2.738 2.738 0 0117.44 20zm0-3.814a1.09 1.09 0 101.09 1.09 1.094 1.094 0 00-1.09-1.093zm1.75-2.806H6.38a.823.823 0 01-.8-.628L2.9 1.637H.84a.817.817 0 110-1.634h2.71a.824.824 0 01.8.627l.74 3.078h16.1a.818.818 0 01.8 1.014l-2 8.038a.822.822 0 01-.8.617zM7.03 11.745h11.52l1.59-6.4H5.49zM7.48 20a2.724 2.724 0 112.74-2.724A2.738 2.738 0 017.48 20zm0-3.814a1.09 1.09 0 101.09 1.09 1.094 1.094 0 00-1.09-1.093z" fill-rule="evenodd"/></svg><svg aria-hidden="true" class="dsvg-inline--fa dfa-facebook-f dfa-w-10" viewBox="0 0 320 512" id="facebook" xmlns="http://www.w3.org/2000/svg"><path d="M279.14 288l14.22-92.66h-88.91v-60.13c0-25.35 12.42-50.06 52.24-50.06h40.42V6.26S260.43 0 225.36 0c-73.22 0-121.08 44.38-121.08 124.72v70.62H22.89V288h81.39v224h100.17V288z"/></svg><svg aria-hidden="true" class="esvg-inline--fa efa-google efa-w-16" viewBox="0 0 488 512" id="google" xmlns="http://www.w3.org/2000/svg"><path d="M488 261.8C488 403.3 391.1 504 248 504 110.8 504 0 393.2 0 256S110.8 8 248 8c66.8 0 123 24.5 166.3 64.9l-67.5 64.9C258.5 52.6 94.3 116.6 94.3 256c0 86.5 69.1 156.6 153.7 156.6 98.2 0 135-70.4 140.8-106.9H248v-85.3h236.1c2.3 12.7 3.9 24.9 3.9 41.4z"/></svg><svg viewBox="0 0 20 20" id="heart-icon" xmlns="http://www.w3.org/2000/svg"><path d="M19.75 4.589A6.683 6.683 0 0015.58.218c-1.71-.595-3.75 0-5.58 1.611C8.17.26 6.12-.293 4.42.26A6.884 6.884 0 00.25 4.631c-.47 1.57-.51 4.117 1.95 7.215 1.11 1.4 2.82 3.4 4.22 4.965 2.68 3.014 3.11 3.183 3.49 3.183h.17c.39 0 .77-.168 3.45-3.224a224.86 224.86 0 004.22-4.966c2.47-3.098 2.47-5.645 2-7.215zm-3.28 6.2c-1.96 2.462-5.32 6.324-6.47 7.385-1.15-1.061-4.52-4.924-6.48-7.385-1.61-1.994-2.21-3.947-1.7-5.687a4.986 4.986 0 013.11-3.225c1.23-.467 2.9.169 4.43 1.655a.84.84 0 001.06.126.447.447 0 00.22-.17c1.53-1.443 3.19-2.079 4.42-1.655a5.168 5.168 0 013.11 3.268c.51 1.699-.08 3.689-1.7 5.683z" fill-rule="evenodd"/></svg><svg aria-hidden="true" class="gsvg-inline--fa gfa-linkedin-in gfa-w-14" viewBox="0 0 448 512" id="linkedin" xmlns="http://www.w3.org/2000/svg"><path d="M100.28 448H7.4V148.9h92.88zM53.79 108.1C24.09 108.1 0 83.5 0 53.8a53.79 53.79 0 01107.58 0c0 29.7-24.1 54.3-53.79 54.3zM447.9 448h-92.68V302.4c0-34.7-.7-79.2-48.29-79.2-48.29 0-55.69 37.7-55.69 76.7V448h-92.78V148.9h89.08v40.8h1.3c12.4-23.5 42.69-48.3 87.88-48.3 94 0 111.28 61.9 111.28 142.3V448z"/></svg><svg aria-hidden="true" class="hsvg-inline--fa hfa-pinterest-p hfa-w-12" viewBox="0 0 384 512" id="pinterest" xmlns="http://www.w3.org/2000/svg"><path d="M204 6.5C101.4 6.5 0 74.9 0 185.6 0 256 39.6 296 63.6 296c9.9 0 15.6-27.6 15.6-35.4 0-9.3-23.7-29.1-23.7-67.8 0-80.4 61.2-137.4 140.4-137.4 68.1 0 118.5 38.7 118.5 109.8 0 53.1-21.3 152.7-90.3 152.7-24.9 0-46.2-18-46.2-43.8 0-37.8 26.4-74.4 26.4-113.4 0-66.2-93.9-54.2-93.9 25.8 0 16.8 2.1 35.4 9.6 50.7-13.8 59.4-42 147.9-42 209.1 0 18.9 2.7 37.5 4.5 56.4 3.4 3.8 1.7 3.4 6.9 1.5 50.4-69 48.6-82.5 71.4-172.8 12.3 23.4 44.1 36 69.3 36 106.2 0 153.9-103.5 153.9-196.8C384 71.3 298.2 6.5 204 6.5z"/></svg><svg viewBox="0 0 20.03 20" id="search" xmlns="http://www.w3.org/2000/svg"><path d="M19.89 18.7l-5.81-5.81a7.944 7.944 0 10-1.18 1.178l5.81 5.81a.417.417 0 00.59 0l.59-.589a.421.421 0 000-.589zM7.93 14.167a6.25 6.25 0 116.25-6.25 6.254 6.254 0 01-6.25 6.246z" fill-rule="evenodd"/></svg><svg aria-hidden="true" class="jsvg-inline--fa jfa-twitter jfa-w-16" viewBox="0 0 512 512" id="twitter" xmlns="http://www.w3.org/2000/svg"><path d="M459.37 151.716c.325 4.548.325 9.097.325 13.645 0 138.72-105.583 298.558-298.558 298.558-59.452 0-114.68-17.219-161.137-47.106 8.447.974 16.568 1.299 25.34 1.299 49.055 0 94.213-16.568 130.274-44.832-46.132-.975-84.792-31.188-98.112-72.772 6.498.974 12.995 1.624 19.818 1.624 9.421 0 18.843-1.3 27.614-3.573-48.081-9.747-84.143-51.98-84.143-102.985v-1.299c13.969 7.797 30.214 12.67 47.431 13.319-28.264-18.843-46.781-51.005-46.781-87.391 0-19.492 5.197-37.36 14.294-52.954 51.655 63.675 129.3 105.258 216.365 109.807-1.624-7.797-2.599-15.918-2.599-24.04 0-57.828 46.782-104.934 104.934-104.934 30.213 0 57.502 12.67 76.67 33.137 23.715-4.548 46.456-13.32 66.599-25.34-7.798 24.366-24.366 44.833-46.132 57.827 21.117-2.273 41.584-8.122 60.426-16.243-14.292 20.791-32.161 39.308-52.628 54.253z"/></svg><svg viewBox="0 0 20 20" id="user" xmlns="http://www.w3.org/2000/svg"><path d="M17.07 12.928a9.923 9.923 0 00-3.8-2.383 5.78 5.78 0 10-6.54 0A10.018 10.018 0 000 20h1.56a8.44 8.44 0 0116.88 0H20a9.931 9.931 0 00-2.93-7.072zM5.78 5.78A4.22 4.22 0 1110 10a4.222 4.222 0 01-4.22-4.22z" fill-rule="evenodd"/></svg></svg>